<svg xmlns="http://www.w3.org/2000/svg" viewBox="0 0 240.58 239.88"><g id="Layer_2" data-name="Layer 2"><g id="Layer_1-2" data-name="Layer 1"><path d="M17.82,100.36a14.63,14.63,0,0,1,2.48.9,12.19,12.19,0,0,1,2.21,1.32,8.23,8.23,0,0,1,1.71,1.78,7.13,7.13,0,0,1,1.07,2.24,7.9,7.9,0,0,1-.55,5.32,7.39,7.39,0,0,1-1.5,2,8.28,8.28,0,0,1-2.06,1.39,12,12,0,0,1-2.42.86,15.35,15.35,0,0,1-2.62.4,18.57,18.57,0,0,1-2.59,0l-3.28-.34a16.88,16.88,0,0,1-2.55-.5,14.66,14.66,0,0,1-2.48-.91A11.81,11.81,0,0,1,3,113.44a8.68,8.68,0,0,1-1.75-1.78,7.31,7.31,0,0,1-1-2.24,7.13,7.13,0,0,1-.19-2.72,7.3,7.3,0,0,1,.74-2.6,7.41,7.41,0,0,1,1.49-2,8.44,8.44,0,0,1,2.06-1.38,12.51,12.51,0,0,1,2.43-.86,15.31,15.31,0,0,1,2.62-.37,18.63,18.63,0,0,1,2.6.05l3.28.34A19.67,19.67,0,0,1,17.82,100.36Zm-8.12,1.1a14,14,0,0,0-2.14.23,10.78,10.78,0,0,0-2,.59,6.84,6.84,0,0,0-1.75,1,5.34,5.34,0,0,0-1.27,1.52,5.23,5.23,0,0,0-.63,2.08,5.15,5.15,0,0,0,.2,2.18A5.58,5.58,0,0,0,3,110.81a7.52,7.52,0,0,0,1.51,1.35,10.26,10.26,0,0,0,1.86,1,13.64,13.64,0,0,0,2.05.67,17.37,17.37,0,0,0,2,.37l3.32.34a17.11,17.11,0,0,0,2.05,0,13.75,13.75,0,0,0,2.12-.23,11.29,11.29,0,0,0,2.05-.59,7,7,0,0,0,1.75-1A5.54,5.54,0,0,0,23,111.21a5.8,5.8,0,0,0,.44-4.27,5.26,5.26,0,0,0-.95-1.74,6.29,6.29,0,0,0-1.5-1.35,11.74,11.74,0,0,0-1.86-1,13.09,13.09,0,0,0-2-.65,20.11,20.11,0,0,0-2-.35l-3.32-.35C11.09,101.47,10.41,101.45,9.7,101.46Z"/><path d="M28,93.55l-.64,1.93L3.75,87.61l2.47-7.42a9.72,9.72,0,0,1,1.49-2.73,7.53,7.53,0,0,1,2.17-1.91,6.87,6.87,0,0,1,2.7-.87,7.47,7.47,0,0,1,3.11.39,7.28,7.28,0,0,1,2.7,1.55A6.59,6.59,0,0,1,20,78.94a7.31,7.31,0,0,1,.57,2.81,9.67,9.67,0,0,1-.48,3.06l-1.83,5.5Zm-9.55-9.29A7,7,0,0,0,18.79,82a5.46,5.46,0,0,0-.47-2.1,4.88,4.88,0,0,0-1.22-1.72,5.51,5.51,0,0,0-2-1.15,5.87,5.87,0,0,0-2.34-.31,5.51,5.51,0,0,0-2.06.59A5.66,5.66,0,0,0,9,78.69a6.92,6.92,0,0,0-1.13,2l-1.83,5.5,10.56,3.52Z"/><path d="M25.33,68.41,34,73.62l6.51-10.85,1.54.92L34.52,76.28,13.18,63.49,20.69,51l1.55.93L15.77,62.68l8,4.81,5.64-9.42L31,59Z"/><path d="M54.58,49.56,31.5,43.5,46.72,57.89l-1.38,1.46L27.24,42.28l1.39-1.47,23.06,6L36.47,32.49,37.87,31,56,48.09Z"/><path d="M77.09,8.74l8.56,21.42-1.86.74L75.25,9.47l-7.38,2.95-.67-1.68L83.78,4.11l.67,1.68Z"/><path d="M111.35,15.61a15.11,15.11,0,0,1-.22,2.62,11.8,11.8,0,0,1-.7,2.48,8.07,8.07,0,0,1-1.27,2.12,7,7,0,0,1-1.88,1.62,7.46,7.46,0,0,1-2.56.89,6.95,6.95,0,0,1-5-1,8.16,8.16,0,0,1-1.88-1.61,11.91,11.91,0,0,1-1.46-2.12,14.13,14.13,0,0,1-1.07-2.42,15.73,15.73,0,0,1-.65-2.51l-.53-3.26a16.7,16.7,0,0,1-.19-2.59,14.38,14.38,0,0,1,.24-2.63,11.3,11.3,0,0,1,.7-2.47A8.61,8.61,0,0,1,96.12,2.6,7.08,7.08,0,0,1,100.58.11a7,7,0,0,1,2.71,0,7.48,7.48,0,0,1,2.31.91,8.51,8.51,0,0,1,1.88,1.63A13.78,13.78,0,0,1,109,4.81a14.89,14.89,0,0,1,1,2.43,18.63,18.63,0,0,1,.64,2.52l.53,3.26A19.7,19.7,0,0,1,111.35,15.61Zm-3.19-7.56a13.57,13.57,0,0,0-.78-2,11.26,11.26,0,0,0-1.09-1.79,6.68,6.68,0,0,0-1.44-1.42,5.39,5.39,0,0,0-1.8-.83A5.22,5.22,0,0,0,100.88,2a5.12,5.12,0,0,0-2,.76A5.27,5.27,0,0,0,97.4,4.06a6.69,6.69,0,0,0-.91,1.81,10.05,10.05,0,0,0-.46,2,15.57,15.57,0,0,0-.11,2.15,18.49,18.49,0,0,0,.17,2l.54,3.28a15.91,15.91,0,0,0,.48,2,13.86,13.86,0,0,0,.79,2A10.74,10.74,0,0,0,99,21.19a6.87,6.87,0,0,0,1.43,1.42,5.5,5.5,0,0,0,1.8.84,5.36,5.36,0,0,0,2.2.07,5.25,5.25,0,0,0,2-.76,5.53,5.53,0,0,0,1.44-1.37,6.6,6.6,0,0,0,.9-1.8,11.62,11.62,0,0,0,.46-2.06,12.61,12.61,0,0,0,.09-2.13c0-.72-.09-1.41-.18-2.06l-.54-3.29C108.52,9.4,108.36,8.74,108.16,8.05Z"/><path d="M151.28,28.78l-5.4-23.25-5.64,20.18-1.94-.54L145,1.2l1.94.54L152.32,25,157.93,4.8l2,.55-6.67,24Z"/><path d="M166.16,22.05,161.39,31l11.16,5.95-.85,1.58-12.95-6.9,11.71-22,12.89,6.88-.85,1.6-11.1-5.92L167,20.46l9.68,5.17-.84,1.58Z"/><path d="M191.39,21.83l1.47,1.25-10,15.43-1.12,1.76,1.63-1.36,14.42-11.59,1.37,1.17L190,44.55l-1.09,1.8,1.6-1.4,13.67-12.23L205.59,34,186.76,50.6l-1.54-1.32L195,32.38l.74-1.26-1.14.91L179.45,44.35,177.89,43Z"/><path d="M214.06,84.37a8.06,8.06,0,0,1-3-.48,7.58,7.58,0,0,1-2.56-1.54,8,8,0,0,1-1.87-2.67,7.2,7.2,0,0,1-.45-5.08,7.56,7.56,0,0,1,1-2.25,11.83,11.83,0,0,1,1.59-2,15.47,15.47,0,0,1,2-1.66,17.78,17.78,0,0,1,2.27-1.31l3.28-1.5a17.2,17.2,0,0,1,2.47-.87,14.62,14.62,0,0,1,2.6-.46,11.23,11.23,0,0,1,2.53.08,8.25,8.25,0,0,1,2.36.7,7.18,7.18,0,0,1,2,1.41,8.61,8.61,0,0,1,2.36,5.44,7.49,7.49,0,0,1-.48,2.93,8.3,8.3,0,0,1-1.6,2.57,11.28,11.28,0,0,1-2.54,2.06l-.84-1.83a11.61,11.61,0,0,0,1.91-1.61,6.86,6.86,0,0,0,1.3-1.92,5.45,5.45,0,0,0,.45-2.2,5.91,5.91,0,0,0-.6-2.47A5.53,5.53,0,0,0,227,68a5.17,5.17,0,0,0-1.67-1,6.67,6.67,0,0,0-2-.44,10.61,10.61,0,0,0-2.1.08,15.21,15.21,0,0,0-4,1.2L214,69.28a15,15,0,0,0-1.83,1,12.7,12.7,0,0,0-1.71,1.28A10.37,10.37,0,0,0,209,73.09a6.63,6.63,0,0,0-1,1.77,5.46,5.46,0,0,0-.31,2,5.56,5.56,0,0,0,.53,2.12A5.92,5.92,0,0,0,209.71,81a5.34,5.34,0,0,0,1.95,1.1,6.47,6.47,0,0,0,2.27.27,11.1,11.1,0,0,0,2.48-.42l.84,1.84A11.23,11.23,0,0,1,214.06,84.37Z"/><path d="M223.18,105.31a13.54,13.54,0,0,1-2.63-.08,11.61,11.61,0,0,1-2.51-.58,8,8,0,0,1-2.18-1.16,6.84,6.84,0,0,1-1.71-1.8,7.39,7.39,0,0,1-1-2.5,7.26,7.26,0,0,1-.1-2.73,7,7,0,0,1,.82-2.34,8.29,8.29,0,0,1,1.51-2,12.57,12.57,0,0,1,2-1.57,15,15,0,0,1,2.37-1.18,17.16,17.16,0,0,1,2.47-.78l3.23-.69a16.25,16.25,0,0,1,2.58-.32,14.37,14.37,0,0,1,2.63.1,12.08,12.08,0,0,1,2.51.58,9.16,9.16,0,0,1,2.22,1.15,7.13,7.13,0,0,1,2.71,4.33,7.15,7.15,0,0,1,.1,2.71,7.5,7.5,0,0,1-.79,2.35,8.48,8.48,0,0,1-1.54,2,12.57,12.57,0,0,1-2,1.57,14.55,14.55,0,0,1-2.38,1.16,17.66,17.66,0,0,1-2.49.76l-3.22.7A19.35,19.35,0,0,1,223.18,105.31Zm7.39-3.56a13.68,13.68,0,0,0,2-.88,11.24,11.24,0,0,0,1.73-1.18,6.8,6.8,0,0,0,1.35-1.5,5.17,5.17,0,0,0,.69-4,5.26,5.26,0,0,0-.86-2A5.72,5.72,0,0,0,234,90.8a7,7,0,0,0-1.85-.82,10.92,10.92,0,0,0-2.07-.35,15.43,15.43,0,0,0-2.15,0,19.76,19.76,0,0,0-2,.27l-3.26.7a16.72,16.72,0,0,0-2,.59,14.2,14.2,0,0,0-1.95.88A11.32,11.32,0,0,0,217,93.26a6.63,6.63,0,0,0-1.35,1.51,5.45,5.45,0,0,0-.75,1.84,5.26,5.26,0,0,0,.05,2.19,5,5,0,0,0,.86,2,5.47,5.47,0,0,0,1.43,1.37,6.42,6.42,0,0,0,1.85.81,11.74,11.74,0,0,0,2.08.36,12.63,12.63,0,0,0,2.13,0,18.07,18.07,0,0,0,2.05-.29l3.26-.7A18.06,18.06,0,0,0,230.57,101.75Z"/><path d="M217.25,127.63l-1.79,0,.24-14.71,24.88.4,0,2L217.46,115Z"/><path d="M213.26,148.47l-1.75-.4,3.23-14.35L239,139.18l-.45,2L216,136.11Z"/><path d="M214.74,158.73l-5.33-4.95.87-1.85,19.07,17.91-.79,1.67-25.93-3.33.87-1.86,7.22,1Zm-2.13,8.82,13.56,1.81-10-9.32Z"/><path d="M219.84,187l-4.15,5.38a12.21,12.21,0,0,1-2.11,2.08,8.1,8.1,0,0,1-2.48,1.3,5.77,5.77,0,0,1-2.68.18,5.85,5.85,0,0,1-2.7-1.27,5.56,5.56,0,0,1-1.32-1.39,4.81,4.81,0,0,1-.67-1.57,5.62,5.62,0,0,1-.13-1.68,9.84,9.84,0,0,1,.33-1.8l-.05,0a6.8,6.8,0,0,1-1.81,1.05,6.53,6.53,0,0,1-2,.43,6.07,6.07,0,0,1-2-.26,5.85,5.85,0,0,1-1.91-1,6.34,6.34,0,0,1-1.95-2.28,6.48,6.48,0,0,1-.68-2.67,7.65,7.65,0,0,1,.42-2.81,9.75,9.75,0,0,1,1.39-2.65l4.78-6.19Zm-19.53-12.49-3.56,4.62a6.75,6.75,0,0,0-1,2,5.84,5.84,0,0,0-.28,2,4.73,4.73,0,0,0,.52,2,5,5,0,0,0,1.43,1.68,4.57,4.57,0,0,0,1.93.92,4.67,4.67,0,0,0,2,0,5.71,5.71,0,0,0,1.83-.81,6.79,6.79,0,0,0,1.57-1.42l3.66-4.75Zm6.4,11.26a8.15,8.15,0,0,0-1,1.84,5.45,5.45,0,0,0-.4,2,4.31,4.31,0,0,0,.37,1.87A4.84,4.84,0,0,0,209,194a4.12,4.12,0,0,0,1.94-.16,6.14,6.14,0,0,0,1.78-1,9.69,9.69,0,0,0,1.54-1.53l2.93-3.8-7.39-5.7Z"/><path d="M180.43,204a14.74,14.74,0,0,1-1.16-2.36,12.38,12.38,0,0,1-.66-2.49,8.18,8.18,0,0,1,0-2.47,7,7,0,0,1,.79-2.35,7.16,7.16,0,0,1,1.75-2.07,7.39,7.39,0,0,1,2.35-1.37,7.21,7.21,0,0,1,2.46-.37,8.36,8.36,0,0,1,2.44.43,12.32,12.32,0,0,1,2.34,1.07,15.43,15.43,0,0,1,2.16,1.54,17.59,17.59,0,0,1,1.84,1.82l2.11,2.53a17.66,17.66,0,0,1,1.49,2.14,13.67,13.67,0,0,1,1.14,2.38,12.38,12.38,0,0,1,.66,2.49,8.66,8.66,0,0,1,0,2.49,7,7,0,0,1-.8,2.34,7.9,7.9,0,0,1-4.1,3.43,7.5,7.5,0,0,1-2.46.4,8.08,8.08,0,0,1-2.45-.45A13.25,13.25,0,0,1,188,212a16.09,16.09,0,0,1-2.14-1.57,18.67,18.67,0,0,1-1.83-1.84l-2.12-2.53A17.87,17.87,0,0,1,180.43,204Zm6.6,4.87a12.85,12.85,0,0,0,1.69,1.33,11.78,11.78,0,0,0,1.86,1,6.55,6.55,0,0,0,1.95.48,5.35,5.35,0,0,0,2-.2,5.26,5.26,0,0,0,1.9-1.06,5.14,5.14,0,0,0,1.37-1.7,5.37,5.37,0,0,0,.54-1.89,6.93,6.93,0,0,0-.14-2,10.29,10.29,0,0,0-.65-2,13.76,13.76,0,0,0-1-1.9,17,17,0,0,0-1.18-1.67l-2.14-2.55a16.43,16.43,0,0,0-1.44-1.46,13.47,13.47,0,0,0-1.69-1.32,11.25,11.25,0,0,0-1.87-1,6.64,6.64,0,0,0-2-.49,5.57,5.57,0,0,0-2,.2,5.71,5.71,0,0,0-3.29,2.75,5.53,5.53,0,0,0-.54,1.92,6.51,6.51,0,0,0,.15,2,11.48,11.48,0,0,0,.65,2,13.05,13.05,0,0,0,1,1.88c.4.6.8,1.16,1.21,1.68l2.15,2.55A17.88,17.88,0,0,0,187,208.83Z"/><path d="M173.4,210.9l-4.81-9.23,1.79-.93,11.49,22.07-6.23,3.24a9.93,9.93,0,0,1-3,1,7.87,7.87,0,0,1-2.91-.08,6.84,6.84,0,0,1-2.56-1.24,7.31,7.31,0,0,1-2-2.45,6.7,6.7,0,0,1-.73-2.2,6.55,6.55,0,0,1,0-2.12,7.44,7.44,0,0,1,.71-2,10.58,10.58,0,0,1,1.26-1.87l-10-6.83-.1-.19,1.9-1,9.64,6.71Zm-4,4.06a6.19,6.19,0,0,0-1.72,1.38,5.6,5.6,0,0,0-1,1.8,5.4,5.4,0,0,0-.24,2.05,5.56,5.56,0,0,0,.64,2.12,5.63,5.63,0,0,0,1.47,1.85,5.13,5.13,0,0,0,1.92,1,5.55,5.55,0,0,0,2.16.09,7.4,7.4,0,0,0,2.25-.73l4.44-2.31-5.07-9.73Z"/><path d="M151,217l.33-7.27,2-.53L152,235.34l-1.78.48-14.2-22,2-.53,3.93,6.13Zm-8.11,4.07,7.36,11.52.66-13.67Z"/><path d="M124.4,237.72l-1-23.05,2-.09,1,23,7.94-.35.08,1.81-17.84.79-.08-1.81Z"/><path d="M92.38,236.61l.32-1.81,6.14,1.06,3.62-20.9-6.15-1.06.31-1.8,14.2,2.45-.31,1.8-6-1-3.62,20.9,6,1-.31,1.82Z"/><path d="M73.18,212.07A14.3,14.3,0,0,1,74.74,210a11.54,11.54,0,0,1,1.9-1.74,7.89,7.89,0,0,1,2.19-1.14,6.67,6.67,0,0,1,2.45-.39,7.87,7.87,0,0,1,4.94,2,7.08,7.08,0,0,1,1.47,2,8.16,8.16,0,0,1,.76,2.36,11.64,11.64,0,0,1,.13,2.57,15.53,15.53,0,0,1-.35,2.63,16.94,16.94,0,0,1-.76,2.47l-1.26,3.06a17.44,17.44,0,0,1-1.2,2.3,12.76,12.76,0,0,1-1.58,2.11,11.18,11.18,0,0,1-1.9,1.75,8.63,8.63,0,0,1-2.2,1.17,7.15,7.15,0,0,1-5.1-.21,7.42,7.42,0,0,1-2.29-1.45,7.68,7.68,0,0,1-1.49-2,8.25,8.25,0,0,1-.74-2.38,12.92,12.92,0,0,1-.15-2.57,15.66,15.66,0,0,1,.4-2.62,18.89,18.89,0,0,1,.78-2.48L72,214.38A19.49,19.49,0,0,1,73.18,212.07Zm-1.24,8.11a12.45,12.45,0,0,0-.39,2.11,11.33,11.33,0,0,0,0,2.1,7,7,0,0,0,.48,2,5.3,5.3,0,0,0,1.1,1.65,5.76,5.76,0,0,0,4,1.62,5.45,5.45,0,0,0,1.93-.4,7,7,0,0,0,1.72-1.06,9.94,9.94,0,0,0,1.46-1.51,14.26,14.26,0,0,0,1.22-1.77,15.56,15.56,0,0,0,.92-1.82L85.6,220a17.14,17.14,0,0,0,.63-1.95,13.92,13.92,0,0,0,.37-2.11,10.84,10.84,0,0,0,0-2.13,6.33,6.33,0,0,0-.48-2,5.43,5.43,0,0,0-1.09-1.66A5.18,5.18,0,0,0,83.22,209a5.26,5.26,0,0,0-2.14-.42,5.52,5.52,0,0,0-1.94.41A6.4,6.4,0,0,0,77.43,210,11.67,11.67,0,0,0,76,211.52a13.11,13.11,0,0,0-1.2,1.77,19.86,19.86,0,0,0-.92,1.85l-1.27,3.08A18,18,0,0,0,71.94,220.18Z"/><path d="M61,194.41l-2.58,23.73,12-17.19L72,202.1,57.8,222.53l-1.66-1.15,2.56-23.7L46.76,214.85l-1.67-1.16,14.2-20.43Z"/><path d="M39.91,185.45a5.56,5.56,0,0,0-.12,2.15,10.67,10.67,0,0,0,.62,2.2c.29.74.6,1.44.91,2.1s.72,1.62,1,2.51a11.56,11.56,0,0,1,.65,2.64,7,7,0,0,1-.18,2.75,5.32,5.32,0,0,1-1.58,2.49,5.45,5.45,0,0,1-2.5,1.37,6.52,6.52,0,0,1-2.71.05,8.4,8.4,0,0,1-2.6-1,9.69,9.69,0,0,1-2.22-1.79,8.67,8.67,0,0,1-1.67-2.57,7.89,7.89,0,0,1-.63-2.83,6.89,6.89,0,0,1,.49-2.82,7.13,7.13,0,0,1,1.71-2.54l1.41,1.51a7.28,7.28,0,0,0-1.22,2,5.47,5.47,0,0,0,0,4.13,6.58,6.58,0,0,0,1.26,1.94A8,8,0,0,0,34.17,201a6,6,0,0,0,1.86.77,4.74,4.74,0,0,0,1.95,0,3.8,3.8,0,0,0,1.82-1A3.67,3.67,0,0,0,41,198.91a5.19,5.19,0,0,0,.06-2.08,9,9,0,0,0-.61-2.13c-.3-.72-.6-1.39-.9-2A25,25,0,0,1,38.4,190a11.42,11.42,0,0,1-.64-2.84,6.8,6.8,0,0,1,.31-2.72A5.59,5.59,0,0,1,39.7,182a5.47,5.47,0,0,1,2.57-1.42,6.45,6.45,0,0,1,2.73,0,8,8,0,0,1,2.64,1,10.73,10.73,0,0,1,2.27,1.86,10.36,10.36,0,0,1,1.89,2.87,8.09,8.09,0,0,1,.75,3.21,6.68,6.68,0,0,1-.45,2.76,7.13,7.13,0,0,1-1.63,2.47l-1.4-1.52a6.36,6.36,0,0,0,1.24-2.12,5.44,5.44,0,0,0,.28-2.22,6,6,0,0,0-.59-2.19,8,8,0,0,0-1.41-2,8.56,8.56,0,0,0-1.66-1.4,5.62,5.62,0,0,0-1.91-.79,4.37,4.37,0,0,0-2,0,4.13,4.13,0,0,0-1.89,1.05A4,4,0,0,0,39.91,185.45Z"/><path d="M31.94,172.41l-15,8.81-1-1.77,15-8.81Zm4.45-2.68a1.38,1.38,0,0,1-.9-.69,1.42,1.42,0,0,1-.18-1.15A1.4,1.4,0,0,1,36,167a1.38,1.38,0,0,1,1.06-.16,1.51,1.51,0,0,1,.89.74,1.41,1.41,0,0,1,.19,1.11,1.39,1.39,0,0,1-.66.83A1.46,1.46,0,0,1,36.39,169.73Z"/></g></g></svg>